<?xml version="1.0" encoding="utf-8"?>
<svg version="1.1" id="レイヤー_1" xmlns="http://www.w3.org/2000/svg" xmlns:xlink="http://www.w3.org/1999/xlink" x="0px"
	 y="0px" viewBox="0 0 100 90" style="enable-background:new 0 0 100 90;" xml:space="preserve">
<style type="text/css">
	.st0{fill:#009FE8;}
	.st2{fill:#004097;}
</style>
<g>
	<g>
		<polygon class="st0" points="58.37,24.27 49.98,10.02 42.89,25.64 		"/>
		<path class="st0" d="M33.2,48.92l-2.4,3.35l-6.47,14.26c0,0,11.89-16.39,26.17-15.88c17.13,0.62,38.75,26.11,38.75,26.11
			L64.44,34.59C50.92,37.84,37.74,42.57,33.2,48.92z"/>
	</g>
	<path class="st2" d="M54.62,69.12c-0.03,5.76-4.73,10.4-10.49,10.36c-5.76-0.03-10.4-4.73-10.36-10.49
		c0.03-5.76,4.73-10.4,10.49-10.36C50.02,58.66,54.65,63.36,54.62,69.12z"/>
	<path class="st2" d="M11.71,32.58l83.23-7.37c0,0-53.59,5.15-65.12,21.28L11.71,32.58z"/>
</g>
</svg>
