<?xml version="1.0" encoding="utf-8"?>
<!-- Generator: Adobe Illustrator 25.3.1, SVG Export Plug-In . SVG Version: 6.00 Build 0)  -->
<svg version="1.1" id="レイヤー_1" xmlns="http://www.w3.org/2000/svg" xmlns:xlink="http://www.w3.org/1999/xlink" x="0px"
	 y="0px" viewBox="0 0 400 90" style="enable-background:new 0 0 400 90;" xml:space="preserve">
<style type="text/css">
	.st0{fill:#009FE8;}
	.st1{fill:#231815;}
	.st2{fill:#004097;}
</style>
<g>
	<g>
		<polygon class="st0" points="58.37,24.27 49.98,10.02 42.89,25.64 		"/>
		<path class="st0" d="M33.2,48.92l-2.4,3.35l-6.47,14.26c0,0,11.89-16.39,26.17-15.88c17.13,0.62,38.75,26.11,38.75,26.11
			L64.44,34.59C50.92,37.84,37.74,42.57,33.2,48.92z"/>
	</g>
	<g>
		<path class="st1" d="M131.72,52.55c-6.84-3.53-12.2-10.72-15.08-17.56c-2.3,8.6-6.76,13.78-14.9,18.03l-1.55-2.3
			c10.44-4.97,13.89-12.45,15.15-19.11h-14.11v-2.16h14.18v-8.82h2.37v8.82h14.11v2.16h-14.21l-0.04,0.25
			c0.65,2.09,4.53,13.1,15.4,18.32L131.72,52.55z M118.77,51.08c-1.76-3.02-4.35-5.9-4.35-5.9l1.76-1.33c0,0,2.7,2.91,4.5,5.94
			L118.77,51.08z"/>
		<path class="st1" d="M152.62,41.18v11.84h-2.3V41.18h-14.9v-2.2h14.9V25.35h-13.28v-2.2h28.86v2.2h-13.28v13.64h14.93v2.2H152.62z
			 M144.38,37.08c-1.26-3.2-2.7-5.79-4.57-8.49l1.98-1.19c1.8,2.88,3.24,5.61,4.57,8.56L144.38,37.08z M156.69,35.82
			c2.45-2.84,3.89-5.87,5.04-8.71l2.02,1.12c-1.44,2.88-2.81,5.94-5.33,8.92L156.69,35.82z"/>
		<path class="st1" d="M176.55,34.77c-2.09-1.87-5.61-4.07-5.61-4.07l1.15-1.87c0,0,3.38,2.05,5.72,4.07L176.55,34.77z
			 M170.94,50.25c3.89-5,6.51-11.73,6.51-11.73l1.8,1.44c0,0-2.55,6.55-6.44,11.91L170.94,50.25z M177.95,26.82
			c-2.63-2.48-5.69-4.28-5.69-4.28l1.15-1.91c0,0,3.13,1.91,5.83,4.5L177.95,26.82z M192.74,45.17v7.84h-2.27v-7.84h-10.54v-2.12
			h10.54v-5.76h-8.71v-2.12h8.71v-5.61h-9.68v-2.12h13.67c0.86-1.3,2.34-3.71,3.38-6.73l1.98,0.94c-1.04,2.7-2.3,4.39-3.17,5.79
			h5.79v2.12h-9.72v5.61h8.6v2.12h-8.6v5.76h10.58v2.12H192.74z M186.48,27.29c0,0-1.33-2.88-3.45-5.33l1.94-1.12
			c1.84,2.3,3.35,5.43,3.35,5.43L186.48,27.29z"/>
		<path class="st1" d="M207.99,29.23v-2.12h13.28v2.12H207.99z M211.34,51.29v1.73h-2.16V42.19h10.94v9.1H211.34z M209.29,24.12
			v-2.09h10.76v2.09H209.29z M209.47,34.2v-2.05h10.4v2.05H209.47z M209.47,39.16v-2.05h10.4v2.05H209.47z M217.96,44.27h-6.62v4.89
			h6.62V44.27z M239.26,52.69c-3.13-1.19-5.79-2.84-7.84-4.46c-2.16,1.91-5.15,3.6-9.07,4.82l-1.19-2.09
			c3.6-0.83,6.87-2.41,8.67-3.99c-2.41-2.09-4.14-4.79-5.43-7.34l1.91-1.15c1.22,2.81,2.55,5.15,5.18,7.3
			c2.56-2.3,3.53-4.68,4.17-7.63h-13.53v-2.09h15.72v1.94c-0.79,3.99-2.37,6.62-4.89,8.96c1.94,1.48,3.99,2.63,7.41,3.67
			L239.26,52.69z M235.2,34.31c-2.27,0-2.7-0.79-2.7-2.81v-7.66h-4.68c0,4.17-0.9,8.96-4.86,11.48l-1.3-1.87
			c3.92-2.27,4.07-6.48,4.07-11.69h8.92v9.18c0,1.04,0,1.12,1.08,1.12h1.33c0.83,0,1.04-1.12,1.37-4.71l1.98,1.15
			c-0.47,3.49-0.79,5.83-2.81,5.83H235.2z"/>
		<path class="st1" d="M245.05,29.27v-2.12h14.65v2.12H245.05z M248.4,51.29v1.73h-2.16v-10.8h12.31v9.07H248.4z M246.35,24.16
			v-2.12h12.13v2.12H246.35z M246.52,34.23v-2.05h11.77v2.05H246.52z M246.52,39.2v-2.05h11.77v2.05H246.52z M256.39,44.31h-7.99
			v4.89h7.99V44.31z M267.83,53.02V33.77h-7.45v-2.16h7.45V20.63h2.23v10.98h7.38v2.16h-7.38v19.25H267.83z"/>
		<path class="st1" d="M309.2,49.42v-2.37h-9.54v0.94c0,3.6-1.62,4.89-7.16,4.89l-1.01-2.12c4.71,0,6.01-0.25,6.01-2.45v-1.26
			h-12.88v-1.69h12.88V42.4h-15.4v-1.76h15.4v-2.81h-12.92v-1.69h12.92v-2.55h-11.34v-6.37h11.34v-2.48h-14.75v-1.91h14.75v-2.2
			h2.16v2.2h14.43v1.91h-14.43v2.48h11.01v6.37h-11.01v2.55h11.69v4.5h3.13v1.76h-3.13v7.02H309.2z M297.51,28.91h-9.32v2.99h9.32
			V28.91z M308.52,28.91h-8.85v2.99h8.85V28.91z M309.2,37.83h-9.54v2.81h9.54V37.83z M309.2,42.4h-9.54v2.95h9.54V42.4z"/>
		<path class="st1" d="M321.72,50.93c4.43,0,4.71-0.29,4.71-2.2v-10.9c-1.19,3.27-3.09,6.41-6.05,9.64l-1.22-2.2
			c3.31-3.13,5.83-7.56,6.41-10.4h-6.41v-2.02h7.99c-2.02-2.45-4.89-4.68-4.89-4.68l1.51-1.51c0,0,1.01,0.86,2.3,2.12
			c0.76-0.61,2.81-2.52,3.81-4.39h-9.54v-2.09h12.05v2.12c-1.87,2.99-3.96,4.82-4.97,5.69c0.94,1.01,1.8,1.94,1.8,1.94l-0.94,0.79
			h5.69v2.02c-0.9,4.32-2.7,6.87-2.7,6.87l-1.66-1.19c0,0,2.02-3.02,2.34-5.69h-3.38v14.65c0,2.91-1.84,3.49-6.05,3.49L321.72,50.93
			z M341.91,50.79c5.18-0.14,5.47-0.68,5.47-8.35h-5.58c-1.19,4.71-3.92,8.49-8.42,10.47l-1.37-1.87c4.17-1.73,6.69-4.53,7.81-8.6
			h-5.87v-2.09h6.23c0.18-1.26,0.29-2.59,0.29-4.03h2.09c0,1.4-0.11,2.73-0.32,4.03h7.3v0.22c0,10.65-0.5,11.98-6.73,12.27
			L341.91,50.79z M350.51,37.26c0,0-4.17-1.37-7.45-4.17c-3.24,2.81-8.02,4.57-8.02,4.57l-1.04-2.02c0,0,4.64-1.33,7.45-3.67
			c-1.12-0.97-2.66-2.48-4.03-4.28c-1.69,1.87-3.27,2.91-3.27,2.91l-1.44-1.66c2.05-1.3,5.4-4.39,6.69-8.2l1.94,0.54
			c-0.43,1.3-1.33,2.41-1.33,2.41h10.65v2.09h-2.16c-1.15,2.7-2.66,4.86-4.1,6.12c3.13,2.34,7.12,3.38,7.12,3.38L350.51,37.26z
			 M338.96,25.78l-0.22,0.29c1.22,1.94,2.81,3.67,4.25,4.79c1.33-1.3,2.73-3.27,3.24-5.07H338.96z"/>
		<path class="st1" d="M356.22,50.79c1.69-3.71,1.73-7.45,1.73-10.72V28.87h12.27v10.44h-10.11v0.36c0,2.99-0.04,8.71-2.2,12.92
			L356.22,50.79z M356.55,24.52v-2.09h14.54v2.09H356.55z M368.06,30.96h-7.95v6.26h7.95V30.96z M381.73,53.02V33.8h-6.19
			c-0.14,8.82-1.19,13.71-4.39,18.46l-1.73-1.94c3.24-5.04,3.99-10,3.99-19.76v-7.77c4.75-0.14,9.18-0.54,12.81-1.87l1.3,2.02
			c-4.14,1.22-8.02,1.66-11.95,1.94v6.84h12.99v2.09h-4.68v19.22H381.73z"/>
	</g>
	<g>
		<g>
			<path class="st1" d="M109.34,65.65v1.37h-3.83v9.71h-1.57v-9.71h-3.84v-1.37H109.34z"/>
			<path class="st1" d="M120.11,65.65l4.16,10.97v0.1h-1.64l-1.16-3.16h-4.72l-1.15,3.16h-1.58v-0.1l4.16-10.97H120.11z
				 M117.24,72.26H121l-1.88-5.13L117.24,72.26z"/>
			<path class="st1" d="M131.09,76.72V65.65h1.57v11.07H131.09z"/>
			<path class="st1" d="M148.28,65.65h1.57v11.07h-1.57v-4.97h-6.12v4.97h-1.57V65.65h1.57v4.77h6.12V65.65z"/>
			<path class="st1" d="M159.02,75.39h5.43v1.33h-7.01V65.65h6.92v1.33h-5.35v3.45h4.68l-0.17,1.3h-4.51V75.39z"/>
			<path class="st1" d="M171.82,76.72V65.65h1.57v11.07H171.82z"/>
			<path class="st1" d="M190.2,65.65v0.1l-4.1,6.65v4.32h-1.57v-4.38l-3.98-6.6v-0.1h1.73l3.09,5.32l3.21-5.32H190.2z"/>
			<path class="st1" d="M197.71,76.2c-0.78-0.48-1.36-1.16-1.75-2.03c-0.39-0.87-0.59-1.87-0.59-3.03c0-1.28,0.24-2.34,0.72-3.2
				c0.48-0.85,1.12-1.49,1.91-1.9c0.8-0.41,1.68-0.62,2.65-0.62c1.1,0,2.04,0.24,2.82,0.73c0.77,0.48,1.36,1.16,1.75,2.02
				c0.39,0.87,0.59,1.87,0.59,3.03c0,1.28-0.24,2.34-0.72,3.19c-0.48,0.86-1.12,1.49-1.91,1.9c-0.8,0.41-1.68,0.62-2.65,0.62
				C199.42,76.93,198.48,76.69,197.71,76.2z M202.55,75.04c0.54-0.37,0.95-0.88,1.21-1.53c0.27-0.65,0.4-1.41,0.4-2.27
				c0-0.89-0.13-1.67-0.38-2.33c-0.26-0.67-0.65-1.19-1.17-1.56c-0.52-0.38-1.18-0.56-1.97-0.56c-0.81,0-1.48,0.19-2.03,0.56
				s-0.95,0.88-1.21,1.53c-0.27,0.65-0.4,1.41-0.4,2.27c0,0.89,0.13,1.67,0.38,2.33c0.26,0.67,0.65,1.19,1.17,1.56
				c0.52,0.38,1.18,0.56,1.97,0.56C201.34,75.59,202.01,75.41,202.55,75.04z"/>
			<path class="st1" d="M228.61,66.96c1,0.88,1.49,2.28,1.49,4.22c0,1.24-0.25,2.28-0.76,3.1c-0.51,0.83-1.22,1.44-2.13,1.84
				c-0.91,0.4-1.98,0.6-3.21,0.6h-3.04V65.65h3.33C226.18,65.65,227.62,66.09,228.61,66.96z M226.33,75.03
				c0.67-0.24,1.2-0.67,1.57-1.28c0.38-0.62,0.56-1.47,0.56-2.56c0-1.45-0.34-2.51-1.01-3.19c-0.67-0.68-1.71-1.02-3.13-1.02h-1.79
				v8.41h1.28C224.82,75.39,225.66,75.27,226.33,75.03z"/>
			<path class="st1" d="M237.95,75.39h5.43v1.33h-7.01V65.65h6.92v1.33h-5.35v3.45h4.68l-0.17,1.3h-4.51V75.39z"/>
			<path class="st1" d="M250.62,76.59c-0.67-0.22-1.26-0.53-1.78-0.93l0.75-1.13c0.45,0.35,0.97,0.62,1.55,0.79
				c0.58,0.18,1.12,0.26,1.63,0.26c0.82,0,1.44-0.15,1.87-0.44c0.43-0.3,0.64-0.75,0.64-1.35c0-0.35-0.08-0.64-0.23-0.87
				c-0.15-0.23-0.4-0.44-0.75-0.62c-0.35-0.19-0.85-0.4-1.49-0.62l-0.29-0.1c-0.72-0.25-1.3-0.5-1.74-0.74
				c-0.44-0.24-0.8-0.57-1.08-0.97c-0.27-0.4-0.41-0.9-0.41-1.5c0-0.64,0.17-1.18,0.52-1.61c0.35-0.44,0.81-0.77,1.38-0.98
				c0.57-0.22,1.18-0.32,1.83-0.32c0.68,0,1.33,0.09,1.94,0.26c0.61,0.17,1.21,0.45,1.79,0.84l-0.72,1.13
				c-0.5-0.32-0.99-0.55-1.45-0.69c-0.47-0.14-0.99-0.21-1.57-0.21c-0.6,0-1.11,0.13-1.5,0.38c-0.4,0.25-0.6,0.64-0.6,1.16
				c0,0.27,0.07,0.51,0.2,0.72c0.13,0.21,0.36,0.4,0.68,0.58c0.32,0.18,0.78,0.38,1.36,0.58l0.29,0.1c0.76,0.26,1.37,0.51,1.83,0.74
				c0.46,0.23,0.85,0.57,1.18,1.01c0.33,0.44,0.5,1.01,0.5,1.7c0,0.69-0.17,1.28-0.5,1.75c-0.33,0.47-0.8,0.83-1.42,1.08
				c-0.62,0.24-1.35,0.37-2.19,0.37C252.02,76.93,251.29,76.82,250.62,76.59z"/>
			<path class="st1" d="M263.88,76.72V65.65h1.57v11.07H263.88z"/>
			<path class="st1" d="M281.65,70.59v5.4c-0.67,0.32-1.3,0.56-1.9,0.71c-0.59,0.15-1.28,0.23-2.07,0.23
				c-1.22,0-2.22-0.24-3.01-0.74c-0.79-0.49-1.36-1.16-1.73-2.02c-0.36-0.86-0.55-1.85-0.55-2.97c0-1.32,0.24-2.41,0.72-3.27
				c0.48-0.86,1.12-1.49,1.91-1.89c0.8-0.4,1.68-0.6,2.65-0.6c0.72,0,1.38,0.09,1.98,0.26c0.6,0.17,1.17,0.42,1.71,0.75l-0.68,1.2
				c-0.4-0.25-0.83-0.45-1.31-0.61c-0.47-0.15-1-0.23-1.58-0.23c-1.29,0-2.23,0.38-2.83,1.15c-0.6,0.77-0.9,1.83-0.9,3.17
				c0,1.41,0.28,2.5,0.85,3.27s1.5,1.15,2.79,1.15c0.8,0,1.58-0.14,2.36-0.43v-3.21h-2.84l0.17-1.33H281.65z"/>
			<path class="st1" d="M297.9,65.65v11.07h-1.74l-4.87-7.18l-0.22-0.32c-0.02-0.04-0.09-0.15-0.21-0.32
				c-0.12-0.17-0.22-0.33-0.31-0.48s-0.16-0.3-0.23-0.44v8.75h-1.5V65.65h1.66l5.01,7.33c0.05,0.07,0.14,0.21,0.29,0.42
				c0.15,0.21,0.27,0.4,0.38,0.58c0.1,0.18,0.19,0.34,0.26,0.5v-8.84H297.9z"/>
			<path class="st1" d="M315.4,76.2c-0.78-0.48-1.36-1.16-1.75-2.03c-0.39-0.87-0.59-1.87-0.59-3.03c0-1.28,0.24-2.34,0.72-3.2
				c0.48-0.85,1.12-1.49,1.91-1.9c0.8-0.41,1.68-0.62,2.65-0.62c1.11,0,2.04,0.24,2.82,0.73c0.78,0.48,1.36,1.16,1.75,2.02
				c0.39,0.87,0.59,1.87,0.59,3.03c0,1.28-0.24,2.34-0.72,3.19c-0.48,0.86-1.12,1.49-1.91,1.9c-0.8,0.41-1.68,0.62-2.65,0.62
				C317.12,76.93,316.18,76.69,315.4,76.2z M320.25,75.04c0.54-0.37,0.95-0.88,1.21-1.53c0.27-0.65,0.4-1.41,0.4-2.27
				c0-0.89-0.13-1.67-0.38-2.33s-0.65-1.19-1.17-1.56c-0.52-0.38-1.18-0.56-1.97-0.56c-0.81,0-1.48,0.19-2.03,0.56
				s-0.95,0.88-1.21,1.53c-0.27,0.65-0.4,1.41-0.4,2.27c0,0.89,0.13,1.67,0.38,2.33s0.65,1.19,1.17,1.56
				c0.52,0.38,1.18,0.56,1.97,0.56C319.03,75.59,319.7,75.41,320.25,75.04z"/>
			<path class="st1" d="M337.38,66.98h-5.35v3.73h4.67l-0.17,1.33h-4.49v4.68h-1.57V65.65h6.92V66.98z"/>
			<path class="st1" d="M351.32,66.98h-5.35v3.73h4.67l-0.17,1.33h-4.49v4.68h-1.57V65.65h6.92V66.98z"/>
			<path class="st1" d="M358.35,76.72V65.65h1.57v11.07H358.35z"/>
			<path class="st1" d="M369.13,76.23c-0.76-0.47-1.33-1.13-1.7-1.98c-0.37-0.85-0.56-1.86-0.56-3.02c0-1.35,0.24-2.45,0.71-3.31
				c0.47-0.86,1.09-1.49,1.85-1.88c0.76-0.39,1.6-0.59,2.51-0.59c0.69,0,1.34,0.09,1.92,0.26c0.59,0.17,1.15,0.42,1.68,0.75
				l-0.68,1.2c-0.89-0.56-1.84-0.84-2.85-0.84c-1.19,0-2.06,0.39-2.62,1.16c-0.56,0.78-0.85,1.83-0.85,3.16
				c0,1.38,0.3,2.46,0.89,3.25c0.59,0.79,1.46,1.18,2.61,1.18c0.58,0,1.11-0.07,1.57-0.22c0.47-0.15,0.93-0.36,1.4-0.63l0.63,1.14
				c-0.6,0.35-1.19,0.62-1.77,0.8c-0.57,0.18-1.21,0.27-1.91,0.27C370.84,76.93,369.89,76.69,369.13,76.23z"/>
			<path class="st1" d="M384,75.39h5.43v1.33h-7.01V65.65h6.92v1.33H384v3.45h4.68l-0.17,1.3H384V75.39z"/>
		</g>
	</g>
	<path class="st2" d="M54.62,69.12c-0.03,5.76-4.73,10.4-10.49,10.36c-5.76-0.03-10.4-4.73-10.36-10.49
		c0.03-5.76,4.73-10.4,10.49-10.36C50.02,58.66,54.65,63.36,54.62,69.12z"/>
	<path class="st2" d="M11.71,32.58l83.23-7.37c0,0-53.59,5.15-65.12,21.28L11.71,32.58z"/>
</g>
</svg>
